<svg xmlns="http://www.w3.org/2000/svg" width="72" height="20" viewBox="0 0 72 20">
    <g fill="#333" fill-rule="evenodd" transform="translate(0 -2)">
        <path fill-rule="nonzero" d="M17.578 14.016V2.136h-2.156v11.88h2.156zm-3.63-.066V2.488h-2.134v9.042H8.69v1.606h3.124v.814h2.134zm-8.25-5.346c2.398 0 4.246-1.144 4.246-2.992 0-1.892-1.848-3.036-4.246-3.036-2.398 0-4.202 1.144-4.202 3.014 0 1.87 1.804 3.014 4.202 3.014zm0-1.672c-1.254 0-2.134-.55-2.134-1.342 0-.77.836-1.32 2.134-1.32 1.276 0 2.156.55 2.156 1.32 0 .792-.924 1.342-2.156 1.342zm1.012 7.04v-2.926c1.43-.11 2.86-.242 4.29-.44l-.132-1.628c-1.54.198-3.366.308-4.818.374-1.738.088-4.026.11-5.676.132l.264 1.848c1.32-.022 2.64-.066 3.938-.154v2.794H6.71zm10.868 7.524v-6.688h-2.244v1.562H6.27v-1.518H4.048v6.644h13.53zm-2.244-1.76H6.27V18.13h9.064v1.606zm19.932-8.602V9.352H24.31V7.856h10.12V6.14H24.31V4.666h10.802v-1.76H22.044v8.228h13.222zm-5.456 6.754v-3.366h7.59v-1.804H19.69v1.804h7.854v3.366h2.266zm5.522 3.3v-1.804H24.244v-3.476h-2.266v5.28h13.354z"/>
        <path d="M61 2c5.523 0 10 4.477 10 10s-4.477 10-10 10-10-4.477-10-10S55.477 2 61 2zm.017 4C60.456 6 60 6.456 60 7.017v5.377c-.007.069-.007.138 0 .207v.013c0 .332.16.627.405.813l2.858 3.239c.026.029.053.056.082.082.396.352 1.002.316 1.354-.08.41-.462.412-1.157.003-1.621l-2.668-3.025V7.017c0-.561-.455-1.017-1.017-1.017z"/>
        <circle cx="44.5" cy="11.5" r="1.5"/>
    </g>
</svg>
