<svg xmlns="http://www.w3.org/2000/svg" width="38" height="20" viewBox="0 0 38 20">
    <path fill="#333" d="M16.808 11.972V.136h-2.266v2.398h-3.08l.066 1.826h3.014v2.838h-3.014l-.066 1.848h3.08v2.926h2.266zm-11-1.584c2.816 0 5.038-1.738 5.038-4.51 0-2.728-2.266-4.642-5.038-4.642-2.794 0-5.016 1.936-5.016 4.642 0 2.794 2.288 4.51 5.016 4.51zm0-1.716c-1.65 0-2.838-1.166-2.838-2.816 0-1.518 1.166-2.75 2.838-2.75 1.76 0 2.838 1.21 2.838 2.772 0 1.606-1.166 2.794-2.838 2.794zm4.422 11.066c4.268 0 6.71-1.562 6.71-3.85 0-2.376-2.442-3.916-6.71-3.916-4.224 0-6.644 1.54-6.644 3.916 0 2.288 2.42 3.85 6.644 3.85zm0-1.826c-2.706 0-4.334-.77-4.334-2.024 0-1.298 1.628-2.068 4.334-2.068 2.794 0 4.4.77 4.4 2.068 0 1.254-1.606 2.024-4.4 2.024zm24.838 1.826v-9.394h2.794v-1.87h-2.794V.136h-2.244v19.602h2.244zM28.292 2.864v-1.76h-5.72v1.76h5.72zm2.772 2.86v-1.76h-11.33v1.76h11.33zM19.536 16.702c4.092-.022 8.338-.176 12.32-.704l-.176-1.738c-1.298.154-2.948.286-4.906.418v-1.716c2.068-.374 3.432-1.628 3.432-3.234 0-1.936-1.958-3.3-4.752-3.3-2.772 0-4.752 1.364-4.752 3.3 0 1.694 1.54 2.992 3.806 3.278v1.76c-1.826.066-3.608.066-5.28.066l.308 1.87zm5.918-5.434c-1.386 0-2.42-.638-2.42-1.54s1.034-1.562 2.42-1.562c1.408 0 2.42.66 2.42 1.562s-1.012 1.54-2.42 1.54z"/>
</svg>
