<svg xmlns="http://www.w3.org/2000/svg" width="38" height="20" viewBox="0 0 38 20">
    <path fill="#333" d="M15.884 11.642v-4.84h2.86v-1.87h-2.86V.136h-2.266v11.506h2.266zM10.34 10.19V1.104H8.096v2.882h-4.62V1.148H1.21v9.042h9.13zM8.096 8.386h-4.62v-2.64h4.62v2.64zm1.408 11.33c4.224 0 6.622-1.54 6.622-3.872 0-2.354-2.376-3.916-6.622-3.916-4.18 0-6.578 1.562-6.578 3.916 0 2.332 2.398 3.872 6.578 3.872zm0-1.804c-2.684 0-4.246-.792-4.246-2.068s1.54-2.09 4.246-2.09c2.728 0 4.312.792 4.312 2.09 0 1.276-1.584 2.068-4.312 2.068zM35.662 7.858l.99-1.782C33.88 5.9 29.744 3.788 29.744.906V.29h-2.332v.616c0 2.882-3.652 4.818-6.908 5.17l.968 1.76c3.036-.484 6.16-2.2 7.084-4.334.968 2.134 4.29 3.916 7.106 4.356zm1.738 3.366V9.398h-7.744V6.714h-2.244v2.684H19.69v1.826H37.4zm-8.844 8.536c4.312 0 6.798-1.386 6.798-3.586s-2.486-3.608-6.82-3.608c-4.312 0-6.776 1.408-6.776 3.608s2.464 3.586 6.798 3.586zm-.022-1.782c-2.75 0-4.466-.66-4.466-1.804 0-1.122 1.716-1.804 4.466-1.804 2.772 0 4.488.682 4.488 1.804 0 1.144-1.716 1.804-4.488 1.804z"/>
</svg>
