<svg xmlns="http://www.w3.org/2000/svg" width="90" height="20" viewBox="0 0 90 20">
    <g fill="#333" fill-rule="evenodd" transform="translate(0 -2)">
        <path fill-rule="nonzero" d="M17.578 14.016V2.136h-2.156v11.88h2.156zm-3.63-.066V2.488h-2.134v9.042H8.69v1.606h3.124v.814h2.134zm-8.25-5.346c2.398 0 4.246-1.144 4.246-2.992 0-1.892-1.848-3.036-4.246-3.036-2.398 0-4.202 1.144-4.202 3.014 0 1.87 1.804 3.014 4.202 3.014zm0-1.672c-1.254 0-2.134-.55-2.134-1.342 0-.77.836-1.32 2.134-1.32 1.276 0 2.156.55 2.156 1.32 0 .792-.924 1.342-2.156 1.342zm1.012 7.04v-2.926c1.43-.11 2.86-.242 4.29-.44l-.132-1.628c-1.54.198-3.366.308-4.818.374-1.738.088-4.026.11-5.676.132l.264 1.848c1.32-.022 2.64-.066 3.938-.154v2.794H6.71zm10.868 7.524v-6.688h-2.244v1.562H6.27v-1.518H4.048v6.644h13.53zm-2.244-1.76H6.27V18.13h9.064v1.606zm20.328-6.974l1.166-1.738c-2.948-.55-7.084-3.278-7.084-6.6V3.258H27.39v1.166c0 3.366-3.872 6.006-7.084 6.512l1.1 1.826c2.97-.704 6.226-2.948 7.128-5.39 1.012 2.42 4.202 4.642 7.128 5.39zm1.738 6.512v-1.826h-7.766V12.63H27.39v4.818h-7.7v1.826H37.4zm17.446-7.172V2.136h-2.244v3.586h-3.586v1.892h3.586v4.488h2.244zm-14.938.22c2.002-.792 4.026-2.53 4.62-4.576.88 1.914 2.882 3.432 4.51 4.07l1.254-1.694c-2.178-.682-4.62-2.816-4.62-5.874V2.774H43.34v1.562c0 3.036-2.024 5.28-4.774 6.292l1.342 1.694zm15.598 9.262v-1.782H44.33v-1.628h10.538v-5.038h-12.87v1.826h10.626v1.54h-10.56v5.082h13.442z"/>
        <path d="M79 2c5.523 0 10 4.477 10 10s-4.477 10-10 10-10-4.477-10-10S73.477 2 79 2zm.017 4C78.456 6 78 6.456 78 7.017v5.377c-.007.069-.007.138 0 .207v.013c0 .332.16.627.405.813l2.858 3.239c.026.029.053.056.082.082.396.352 1.002.316 1.354-.08.41-.462.412-1.157.003-1.621l-2.668-3.025V7.017c0-.561-.455-1.017-1.017-1.017z"/>
        <circle cx="62.5" cy="11.5" r="1.5"/>
    </g>
</svg>
